<svg id="Layer_1" data-name="Layer 1" xmlns="http://www.w3.org/2000/svg" viewBox="0 0 1000 1022"><title>bonifico</title><path d="M449.57,14C193.27,39.67,0,253.54,0,511.45,0,696.37,103.47,866.87,265.67,953.13L244.81,1022l208.33-48.65L306.84,817.24l-20,65.92C155,807.3,71.52,665.19,71.52,511.45c0-221,165.6-404.29,385.19-426.31A35.76,35.76,0,1,0,449.57,14Z" fill="#abadae"/><path d="M734.33,69.76,755.2.9,546.87,49.55,693.16,205.66l20-65.92c131.9,75.86,215.35,218,215.35,371.71,0,221-165.59,404.29-385.18,426.31a35.76,35.76,0,0,0,3.53,71.34,35.35,35.35,0,0,0,3.61-.18C806.73,983.22,1000,769.36,1000,511.45,1000,326.53,896.54,156,734.33,69.76Z" fill="#abadae"/></svg>