<svg id="Layer_1" data-name="Layer 1" xmlns="http://www.w3.org/2000/svg" viewBox="0 0 1000 675"><title>contrassegno</title><path d="M490.37,179.72A115.79,115.79,0,1,0,581.13,316,115.92,115.92,0,0,0,490.37,179.72ZM452.79,367.08a75.3,75.3,0,1,1,88.64-59A75.39,75.39,0,0,1,452.79,367.08Z" fill="#abadae"/><path d="M956.07,242.55,943.52,240l3.84-19.17A54.74,54.74,0,0,0,904.5,156.5L130.44,1.27A54.74,54.74,0,0,0,66.08,44.12l-65,324.16a54.74,54.74,0,0,0,42.86,64.36l12.55,2.52-3.84,19.17A54.74,54.74,0,0,0,95.5,518.69L869.56,673.93a54.74,54.74,0,0,0,64.36-42.86l65-324.16A54.74,54.74,0,0,0,956.07,242.55ZM866.14,419.94A155.53,155.53,0,0,0,708.83,524.69L169,416.43A155.53,155.53,0,0,0,64.26,259.13l18-89.92A155.53,155.53,0,0,0,239.6,64.45L779.42,172.71A155.53,155.53,0,0,0,884.17,330Zm-8.06,40.19-15.43,76.93A14.2,14.2,0,0,1,826,548.18L749,532.75A115,115,0,0,1,858.08,460.13ZM907.66,212.9l-15.43,76.93a115,115,0,0,1-72.62-109.05l76.93,15.43A14.2,14.2,0,0,1,907.66,212.9ZM122.48,41l76.93,15.43A115,115,0,0,1,90.35,129l15.43-76.93A14.2,14.2,0,0,1,122.48,41ZM40.77,376.25,56.2,299.32a115,115,0,0,1,72.62,109.05L51.89,392.95A14.2,14.2,0,0,1,40.77,376.25ZM894.22,623.11a14.2,14.2,0,0,1-16.7,11.12L103.46,479a14.2,14.2,0,0,1-11.12-16.7l3.84-19.17L818,587.88A54.74,54.74,0,0,0,882.35,545l53.2-265.29,12.56,2.52a14.2,14.2,0,0,1,11.12,16.7Z" fill="#abadae"/></svg>