<?xml version="1.0" encoding="utf-8"?>
<!-- Generator: Adobe Illustrator 21.0.0, SVG Export Plug-In . SVG Version: 6.00 Build 0)  -->
<!DOCTYPE svg PUBLIC "-//W3C//DTD SVG 1.1//EN" "http://www.w3.org/Graphics/SVG/1.1/DTD/svg11.dtd">
<svg version="1.1" id="Google_x2B_" xmlns="http://www.w3.org/2000/svg" xmlns:xlink="http://www.w3.org/1999/xlink" x="0px"
	 y="0px" viewBox="0 0 20 20" style="enable-background:new 0 0 20 20;" xml:space="preserve">
<path d="M2,5.6c0,1.5,0.5,2.6,1.5,3.2c0.8,0.5,1.7,0.6,2.2,0.6c0.1,0,0.2,0,0.3,0c0,0-0.2,1,0.6,2h0c-1.3,0-5.5,0.3-5.5,3.7
	c0,3.5,3.9,3.7,4.6,3.7c0.1,0,0.1,0,0.1,0c0,0,0.1,0,0.2,0c0.5,0,1.8-0.1,3-0.6c1.5-0.8,2.3-2.1,2.3-3.9c0-1.8-1.2-2.8-2.1-3.6
	c-0.5-0.5-1-0.9-1-1.3c0-0.4,0.3-0.7,0.8-1.1c0.7-0.6,1.3-1.5,1.3-3.2c0-1.5-0.2-2.4-1.4-3.1C9,2.1,9.5,2,9.7,2
	c0.6-0.1,1.6-0.2,1.6-0.7V1.2H6.6C6.6,1.2,2,1.4,2,5.6z M9.4,14.6C9.5,16,8.3,17,6.5,17.2c-1.8,0.1-3.3-0.7-3.4-2.1
	c0-0.7,0.3-1.3,0.8-1.9c0.6-0.5,1.4-0.9,2.3-0.9c0.1,0,0.2,0,0.3,0C8.2,12.3,9.3,13.3,9.4,14.6z M8.2,4.6C8.7,6.2,8,7.9,6.9,8.2
	c-0.1,0-0.3,0.1-0.4,0.1c-1,0-2-1-2.3-2.4C4,5.1,4,4.4,4.2,3.7c0.2-0.6,0.6-1.1,1.2-1.2c0.1,0,0.3-0.1,0.4-0.1
	C7,2.4,7.7,2.9,8.2,4.6z M16,8V5h-2v3h-3v2h3v3h2v-3h3V8H16z"/>
</svg>
