<svg id="Layer_1" data-name="Layer 1" xmlns="http://www.w3.org/2000/svg" viewBox="0 0 1000 579"><title>logo</title><path d="M189.26,121.16c33.15,0,60.33-27.25,60.33-61.07C249.6,27,222.42.49,189.26.49S128.93,27,128.93,60.09C128.93,93.91,156.18,121.16,189.26,121.16Z" fill="#081638"/><path d="M953.94,161.63c-30.13,2.68-38.32,20.34-47,45.5-3.42,10-9.53,24.83-14.43,33.89-37.45-42.89-92.35-70.13-153.62-70.13-112.55,0-204.09,91.54-204.09,204a207,207,0,0,0,3,33.76c-24,46.31-37.72,77.18-61.14,77.18-10.27,0-15.37-9.6-15.37-19.87a46.61,46.61,0,0,1,2.89-16.17l30-100.6c4.43-14.7,7.38-27.92,7.38-40.47,0-69.86-81.61-99.33-122.82-111.81a53.27,53.27,0,0,0,3-18.39c0-33.82-30.13-62.55-63.29-62.55-43.42,0-69.13,38.25-69.13,80.2a84.91,84.91,0,0,0,18.39,52.21s-42.48,122.48-43.42,125c-34.63,95.64-60.2,112.41-89.6,112.41-17,0-28-11.07-28-25a36,36,0,0,1,2.21-11.74L189.87,218c3-9.6,6.58-19.87,6.58-27.18,0-32.42-24.23-49.33-49.26-49.33-22.82,0-47.11,16.17-58.86,50.74-23.56,69.19-54.43,156.71-78,225.16C5.91,432.09,0,452,0,464.51,0,533.7,57.39,573.37,125.1,573.37c72.08,0,138.19-30.74,189.66-183,.34-.94.2-1.81.47-2.75l28.25-86.91c20.6,6.64,47.78,11.74,47.78,36.78,0,2.15-1.88,10.6-2.82,15v.13l-25,67.78c-5.91,16.91-8.79,32.35-8.79,47.11,0,64,50.74,105.9,111.81,105.9,46.71,0,77.45-24.29,114.76-69.06A203.84,203.84,0,0,0,738.91,579C851.46,579,943,487.46,943,374.91a205.55,205.55,0,0,0-4.09-40.33c10.13-9.8,19.66-20.27,27.65-32.08C988.71,269.68,1035.22,154.32,953.94,161.63ZM738.91,483a108,108,0,0,1,0-216c2,0,3.89.54,5.91.6A79.7,79.7,0,0,0,845.49,389.14C838.44,442,793.61,483,738.91,483Z" fill="#081638"/></svg>