<svg id="Layer_1" data-name="Layer 1" xmlns="http://www.w3.org/2000/svg" viewBox="0 0 1000 1007"><title>luna-vuota</title><path d="M503,1007C225.65,1007,0,781.35,0,504S225.65,1,503,1A142,142,0,0,1,523.5,2.75c2.47.35,4.94.73,7.49.9a42.84,42.84,0,0,1,28.94,71.48C509.89,130.4,482.34,201,482.34,274c0,164.36,133.72,298.08,298.08,298.08,54,0,106-14.94,154.51-44.39A42.82,42.82,0,0,1,999.62,570C966.4,819.13,752.9,1007,503,1007ZM444.13,90.79C241.77,119.47,85.66,293.84,85.66,504c0,230.13,187.22,417.35,417.34,417.35,179.16,0,335.78-116.65,392.65-281.93a374.11,374.11,0,0,1-115.23,18.38c-211.6,0-383.74-172.14-383.74-383.74A378.8,378.8,0,0,1,444.13,90.79Z" fill="#5dbfda"/></svg>