<svg id="Layer_1" data-name="Layer 1" xmlns="http://www.w3.org/2000/svg" viewBox="0 0 1000 1101"><title>materasso</title><path d="M969.8,507.59l-503-477.45a103.48,103.48,0,0,0-145.44-.2L31.16,294.65l-.88.85A102.66,102.66,0,0,0,0,368.59a104.17,104.17,0,0,0,2.42,22.08H.5V501.78a96.53,96.53,0,0,0,28.44,68.68L531.1,1072.61a97.25,97.25,0,0,0,137.35,0L971.33,769.73a96.5,96.5,0,0,0,28.44-68.68V589.94h-.19A103.18,103.18,0,0,0,969.8,507.59Zm-902-173.81L357.89,69.12l.89-.85a49.85,49.85,0,0,1,70.42,0L932.15,545.69a49.86,49.86,0,0,1-.22,70.21L641.3,906.52a49.85,49.85,0,0,1-70.42,0L68.14,403.8a49.79,49.79,0,0,1-.39-70Zm868,400.36L632.86,1037a46.83,46.83,0,0,1-66.17,0L64.53,534.87a46.52,46.52,0,0,1-13.71-33.09V462.23L533,944.4a103.5,103.5,0,0,0,146.18,0L949.45,674.12v26.93A46.45,46.45,0,0,1,935.74,734.14Z" fill="#abadae"/></svg>