<svg id="Layer_1" data-name="Layer 1" xmlns="http://www.w3.org/2000/svg" viewBox="0 0 1000 1000"><title>materiali-1</title><circle cx="636.06" cy="151.53" r="25.78" fill="#49c8f5"/><circle cx="266.73" cy="434.07" r="33.45" fill="#49c8f5"/><circle cx="689.27" cy="492.58" r="139.38" fill="#49c8f5"/><circle cx="454.68" cy="359.06" r="62.62" fill="#49c8f5"/><circle cx="391.95" cy="650.36" r="29.04" fill="#49c8f5"/><path d="M500,0C224.29,0,0,224.3,0,500s224.29,500,500,500,500-224.3,500-500S775.7,0,500,0ZM784.65,828A62.62,62.62,0,0,0,690,890.74a431,431,0,0,1-128.76,39.48A116.45,116.45,0,1,0,340.08,904a435.68,435.68,0,0,1-140.15-90A132.51,132.51,0,0,0,74.09,586.31,434.89,434.89,0,0,1,65.48,500c0-125.52,53.5-238.78,138.89-318.18a81.94,81.94,0,0,0,48.43,15.83,83,83,0,0,0,83-83,81.73,81.73,0,0,0-1.65-16.29A432.16,432.16,0,0,1,500,65.48c239.6,0,434.53,194.93,434.53,434.52a432.55,432.55,0,0,1-25.43,146.54,33.83,33.83,0,0,0-27,60.34A437.49,437.49,0,0,1,784.65,828Z" fill="#49c8f5"/></svg>