<svg id="Layer_1" data-name="Layer 1" xmlns="http://www.w3.org/2000/svg" viewBox="0 0 1000 1000"><title>materiali-3</title><path d="M420.21,388.25a31.93,31.93,0,1,0,31.91,32A32,32,0,0,0,420.21,388.25Z" fill="#49c8f5"/><path d="M579.82,228.67a31.93,31.93,0,1,0,31.91,31.91A31.93,31.93,0,0,0,579.82,228.67Z" fill="#49c8f5"/><path d="M260.6,228.67a31.93,31.93,0,1,0,31.93,31.91A31.93,31.93,0,0,0,260.6,228.67Z" fill="#49c8f5"/><path d="M579.82,547.88a31.93,31.93,0,1,0,31.91,31.91A31.93,31.93,0,0,0,579.82,547.88Z" fill="#49c8f5"/><path d="M260.6,547.88a31.93,31.93,0,1,0,31.93,31.91A31.93,31.93,0,0,0,260.6,547.88Z" fill="#49c8f5"/><path d="M739.4,388.25a31.93,31.93,0,1,0,31.93,32A31.95,31.95,0,0,0,739.4,388.25Z" fill="#49c8f5"/><path d="M739.4,388.25a31.93,31.93,0,1,0,31.93,32A31.95,31.95,0,0,0,739.4,388.25Z" fill="#49c8f5"/><path d="M420.21,707.47a31.93,31.93,0,1,0,31.91,32A32,32,0,0,0,420.21,707.47Z" fill="#49c8f5"/><path d="M579.82,547.88a31.93,31.93,0,1,0,31.91,31.91A31.93,31.93,0,0,0,579.82,547.88Z" fill="#49c8f5"/><path d="M260.6,547.88a31.93,31.93,0,1,0,31.93,31.91A31.93,31.93,0,0,0,260.6,547.88Z" fill="#49c8f5"/><path d="M739.4,707.47a31.93,31.93,0,1,0,31.93,32A31.95,31.95,0,0,0,739.4,707.47Z" fill="#49c8f5"/><path d="M739.4,707.47a31.93,31.93,0,1,0,31.93,32A31.95,31.95,0,0,0,739.4,707.47Z" fill="#49c8f5"/><path d="M500,1000C224.3,1000,0,775.7,0,500S224.3,0,500,0s500,224.3,500,500S775.71,1000,500,1000Zm0-934.52C260.41,65.48,65.48,260.4,65.48,500S260.41,934.52,500,934.52,934.52,739.6,934.52,500,739.6,65.48,500,65.48Z" fill="#49c8f5"/></svg>