<svg id="Layer_1" data-name="Layer 1" xmlns="http://www.w3.org/2000/svg" viewBox="0 0 1000 1000"><title>materiali-2</title><circle cx="587.72" cy="254.46" r="17.73" fill="#49c8f5"/><circle cx="776.29" cy="623.31" r="17.73" fill="#49c8f5"/><circle cx="543.06" cy="877.67" r="17.73" fill="#49c8f5"/><circle cx="341.79" cy="464.17" r="17.73" fill="#49c8f5"/><circle cx="462.94" cy="757.81" r="80.12" fill="#49c8f5"/><circle cx="892.39" cy="587.14" r="53.91" fill="#49c8f5"/><circle cx="69.88" cy="500" r="53.91" fill="#49c8f5"/><circle cx="829.53" cy="335.1" r="43.08" fill="#49c8f5"/><circle cx="341.79" cy="877.67" r="43.08" fill="#49c8f5"/><circle cx="232.91" cy="640.92" r="91.15" fill="#49c8f5"/><path d="M377.82,42c-.13,2.14-.32,4.25-.32,6.42a101.34,101.34,0,1,0,202.67,0c0-2.17-.19-4.29-.32-6.42Z" fill="#49c8f5"/><path d="M802.76,845.93c9.26-38.41,46.5-46,74.44-33.21v-54.4A80.06,80.06,0,0,0,773.34,875h26.51A109.3,109.3,0,0,1,802.76,845.93Z" fill="#49c8f5"/><circle cx="667.41" cy="757.81" r="43.08" fill="#49c8f5"/><circle cx="624.33" cy="489.08" r="95.89" fill="#49c8f5"/><circle cx="153.93" cy="404.17" r="43.08" fill="#49c8f5"/><circle cx="462.94" cy="397.23" r="43.08" fill="#49c8f5"/><circle cx="733.21" cy="142.68" r="43.08" transform="translate(113.86 560.25) rotate(-45)" fill="#49c8f5"/><circle cx="324.05" cy="229.11" r="57.08" fill="#49c8f5"/><circle cx="408.18" cy="578.84" r="6.13" fill="#49c8f5"/><circle cx="924.64" cy="714.73" r="6.13" fill="#49c8f5"/><circle cx="63.75" cy="446.43" r="6.13" fill="#49c8f5"/><path d="M500,1000C224.29,1000,0,775.7,0,500S224.29,0,500,0s500,224.3,500,500S775.7,1000,500,1000Zm0-934.52C260.4,65.48,65.48,260.4,65.48,500S260.4,934.52,500,934.52,934.52,739.6,934.52,500,739.59,65.48,500,65.48Z" fill="#49c8f5"/></svg>