<svg id="Layer_1" data-name="Layer 1" xmlns="http://www.w3.org/2000/svg" viewBox="0 0 1000 1000"><title>materiali-4</title><path d="M500,122.84a23.58,23.58,0,1,0,23.58,23.59A23.56,23.56,0,0,0,500,122.84Z" fill="#49c8f5"/><path d="M853.57,523.59A23.58,23.58,0,1,0,830,500,23.59,23.59,0,0,0,853.57,523.59Z" fill="#49c8f5"/><path d="M617.85,476.44A23.58,23.58,0,1,0,641.43,500,23.55,23.55,0,0,0,617.85,476.44Z" fill="#49c8f5"/><path d="M500,594.28a23.58,23.58,0,1,0,23.58,23.59A23.56,23.56,0,0,0,500,594.28Z" fill="#49c8f5"/><path d="M735.71,594.28a23.58,23.58,0,1,0,23.58,23.59A23.57,23.57,0,0,0,735.71,594.28Z" fill="#49c8f5"/><path d="M500,358.56a23.58,23.58,0,1,0,23.58,23.59A23.56,23.56,0,0,0,500,358.56Z" fill="#49c8f5"/><path d="M735.71,358.56a23.58,23.58,0,1,0,23.58,23.59A23.57,23.57,0,0,0,735.71,358.56Z" fill="#49c8f5"/><path d="M617.85,240.72a23.56,23.56,0,1,0,23.58,23.56A23.55,23.55,0,0,0,617.85,240.72Z" fill="#49c8f5"/><path d="M500,830a23.58,23.58,0,1,0,23.58,23.59A23.56,23.56,0,0,0,500,830Z" fill="#49c8f5"/><path d="M617.85,712.15a23.56,23.56,0,1,0,23.58,23.56A23.55,23.55,0,0,0,617.85,712.15Z" fill="#49c8f5"/><path d="M382.15,476.44A23.58,23.58,0,1,0,405.71,500,23.57,23.57,0,0,0,382.15,476.44Z" fill="#49c8f5"/><path d="M146.43,476.44A23.58,23.58,0,1,0,170,500,23.55,23.55,0,0,0,146.43,476.44Z" fill="#49c8f5"/><path d="M264.29,594.28a23.58,23.58,0,1,0,23.58,23.59A23.57,23.57,0,0,0,264.29,594.28Z" fill="#49c8f5"/><path d="M264.29,358.56a23.58,23.58,0,1,0,23.58,23.59A23.57,23.57,0,0,0,264.29,358.56Z" fill="#49c8f5"/><path d="M382.15,240.72a23.56,23.56,0,1,0,23.56,23.56A23.57,23.57,0,0,0,382.15,240.72Z" fill="#49c8f5"/><path d="M382.15,712.15a23.56,23.56,0,1,0,23.56,23.56A23.57,23.57,0,0,0,382.15,712.15Z" fill="#49c8f5"/><path d="M500,0C224.29,0,0,224.3,0,500s224.29,500,500,500,500-224.3,500-500S775.7,0,500,0ZM758.81,848.83a23.58,23.58,0,1,0-36.31,24.28,433.79,433.79,0,0,1-445,0,23.58,23.58,0,1,0-36.3-24.28,438.25,438.25,0,0,1-90-90,23.56,23.56,0,1,0-24.26-36.28,433.79,433.79,0,0,1,0-445.06,23.57,23.57,0,1,0,24.26-36.28,438.24,438.24,0,0,1,90-90,23.58,23.58,0,1,0,36.31-24.28,433.79,433.79,0,0,1,445,0,23.58,23.58,0,1,0,36.31,24.28,438.26,438.26,0,0,1,90,90,23.56,23.56,0,1,0,24.26,36.27,433.78,433.78,0,0,1,0,445.06,23.57,23.57,0,1,0-24.26,36.27A438.26,438.26,0,0,1,758.81,848.83Z" fill="#49c8f5"/></svg>