<svg id="Layer_1" data-name="Layer 1" xmlns="http://www.w3.org/2000/svg" viewBox="0 0 1000 1000"><title>materiali-3</title><path d="M420.21,388.25a31.93,31.93,0,1,0,31.91,32A32,32,0,0,0,420.21,388.25Z" fill="#49c8f5"/><path d="M579.82,228.67a31.93,31.93,0,1,0,31.91,31.91A31.93,31.93,0,0,0,579.82,228.67Z" fill="#49c8f5"/><path d="M260.6,228.67a31.93,31.93,0,1,0,31.93,31.91A31.93,31.93,0,0,0,260.6,228.67Z" fill="#49c8f5"/><path d="M739.4,388.25a31.93,31.93,0,1,0,31.93,32A31.95,31.95,0,0,0,739.4,388.25Z" fill="#49c8f5"/><path d="M420.21,707.47a31.93,31.93,0,1,0,31.91,32A32,32,0,0,0,420.21,707.47Z" fill="#49c8f5"/><path d="M606.28,562q-.43-.64-.89-1.25a31.92,31.92,0,0,0-51.16,0q-.46.61-.89,1.25a31.73,31.73,0,0,0-5.46,17.84h0a31.92,31.92,0,1,0,63.84,0h0A31.78,31.78,0,0,0,606.28,562Z" fill="#49c8f5"/><path d="M287.08,562q-.43-.64-.89-1.25a31.93,31.93,0,0,0-51.17,0q-.46.61-.89,1.25a31.74,31.74,0,0,0-5.46,17.84h0a31.93,31.93,0,1,0,63.86,0h0A31.75,31.75,0,0,0,287.08,562Z" fill="#49c8f5"/><path d="M739.4,707.47a31.93,31.93,0,1,0,31.93,32A31.95,31.95,0,0,0,739.4,707.47Z" fill="#49c8f5"/><path d="M500,0C224.3,0,0,224.3,0,500s224.3,500,500,500,500-224.3,500-500S775.71,0,500,0Zm0,934.52C260.41,934.52,65.48,739.6,65.48,500S260.41,65.48,500,65.48,934.52,260.4,934.52,500,739.6,934.52,500,934.52Z" fill="#49c8f5"/></svg>