<svg id="Layer_1" data-name="Layer 1" xmlns="http://www.w3.org/2000/svg" viewBox="0 0 1000 1000"><title>materiali-2</title><circle cx="587.72" cy="254.46" r="17.73" fill="#49c8f5"/><circle cx="776.29" cy="623.31" r="17.73" fill="#49c8f5"/><circle cx="543.06" cy="877.67" r="17.73" fill="#49c8f5"/><circle cx="341.79" cy="464.17" r="17.73" fill="#49c8f5"/><circle cx="462.94" cy="757.81" r="80.12" fill="#49c8f5"/><circle cx="829.53" cy="335.1" r="43.08" fill="#49c8f5"/><circle cx="232.91" cy="640.92" r="91.15" fill="#49c8f5"/><circle cx="667.41" cy="757.81" r="43.08" fill="#49c8f5"/><circle cx="624.33" cy="489.08" r="95.89" fill="#49c8f5"/><circle cx="153.93" cy="404.17" r="43.08" fill="#49c8f5"/><circle cx="462.94" cy="397.23" r="43.08" fill="#49c8f5"/><circle cx="324.05" cy="229.11" r="57.08" fill="#49c8f5"/><circle cx="408.18" cy="578.84" r="6.13" fill="#49c8f5"/><path d="M500,0C224.29,0,0,224.3,0,500s224.29,500,500,500,500-224.3,500-500S775.7,0,500,0ZM365.91,913.36a43.1,43.1,0,1,0-66.5-28C175.65,820.71,86.73,698.15,68.8,553.88l1.07,0a53.91,53.91,0,0,0,0-107.82h0a6.09,6.09,0,0,0-.72-2.58C91.81,269.65,217.65,127.75,383,81.47a101.36,101.36,0,0,0,194.3-9.11A431.21,431.21,0,0,1,700.55,114.6,43.07,43.07,0,1,0,772,161.38C871,241.1,934.52,363.28,934.52,500a437.25,437.25,0,0,1-2.88,50.2,53.9,53.9,0,1,0-19.32,87,433.5,433.5,0,0,1-57.16,112.86,80.11,80.11,0,0,0-94.5,97.37,434.2,434.2,0,0,1-394.74,65.91Z" fill="#49c8f5"/></svg>