<svg id="Layer_1" data-name="Layer 1" xmlns="http://www.w3.org/2000/svg" viewBox="0 0 1000 1000"><title>materiali-4</title><path d="M853.57,287.84A23.56,23.56,0,1,0,830,264.28,23.56,23.56,0,0,0,853.57,287.84Z" fill="#49c8f5"/><path d="M853.57,759.28A23.56,23.56,0,1,0,830,735.72,23.56,23.56,0,0,0,853.57,759.28Z" fill="#49c8f5"/><path d="M853.57,523.59A23.58,23.58,0,1,0,830,500,23.59,23.59,0,0,0,853.57,523.59Z" fill="#49c8f5"/><path d="M853.57,287.84A23.56,23.56,0,1,0,830,264.28,23.56,23.56,0,0,0,853.57,287.84Z" fill="#49c8f5"/><path d="M853.57,759.28A23.56,23.56,0,1,0,830,735.72,23.56,23.56,0,0,0,853.57,759.28Z" fill="#49c8f5"/><path d="M853.57,287.84A23.56,23.56,0,1,0,830,264.28,23.56,23.56,0,0,0,853.57,287.84Z" fill="#49c8f5"/><path d="M617.85,287.84a23.56,23.56,0,1,0-23.56-23.56A23.58,23.58,0,0,0,617.85,287.84Z" fill="#49c8f5"/><path d="M500,170a23.58,23.58,0,1,0-23.56-23.56A23.58,23.58,0,0,0,500,170Z" fill="#49c8f5"/><path d="M735.71,170a23.58,23.58,0,1,0-23.58-23.56A23.58,23.58,0,0,0,735.71,170Z" fill="#49c8f5"/><path d="M382.15,287.84a23.56,23.56,0,1,0-23.58-23.56A23.56,23.56,0,0,0,382.15,287.84Z" fill="#49c8f5"/><path d="M853.57,759.28A23.56,23.56,0,1,0,830,735.72,23.56,23.56,0,0,0,853.57,759.28Z" fill="#49c8f5"/><path d="M617.85,759.28a23.56,23.56,0,1,0-23.56-23.56A23.58,23.58,0,0,0,617.85,759.28Z" fill="#49c8f5"/><path d="M853.57,523.59A23.58,23.58,0,1,0,830,500,23.59,23.59,0,0,0,853.57,523.59Z" fill="#49c8f5"/><path d="M617.85,523.59A23.58,23.58,0,1,0,594.29,500,23.6,23.6,0,0,0,617.85,523.59Z" fill="#49c8f5"/><path d="M500,641.43a23.58,23.58,0,1,0-23.56-23.56A23.58,23.58,0,0,0,500,641.43Z" fill="#49c8f5"/><path d="M735.71,641.43a23.58,23.58,0,1,0-23.58-23.56A23.58,23.58,0,0,0,735.71,641.43Z" fill="#49c8f5"/><path d="M500,405.72a23.58,23.58,0,1,0-23.56-23.56A23.58,23.58,0,0,0,500,405.72Z" fill="#49c8f5"/><path d="M735.71,405.72a23.58,23.58,0,1,0-23.58-23.56A23.58,23.58,0,0,0,735.71,405.72Z" fill="#49c8f5"/><path d="M382.15,759.28a23.56,23.56,0,1,0-23.58-23.56A23.56,23.56,0,0,0,382.15,759.28Z" fill="#49c8f5"/><path d="M382.15,523.59A23.58,23.58,0,1,0,358.57,500,23.59,23.59,0,0,0,382.15,523.59Z" fill="#49c8f5"/><path d="M853.57,287.84A23.56,23.56,0,1,0,830,264.28,23.56,23.56,0,0,0,853.57,287.84Z" fill="#49c8f5"/><path d="M617.85,287.84a23.56,23.56,0,1,0-23.56-23.56A23.58,23.58,0,0,0,617.85,287.84Z" fill="#49c8f5"/><path d="M382.15,287.84a23.56,23.56,0,1,0-23.58-23.56A23.56,23.56,0,0,0,382.15,287.84Z" fill="#49c8f5"/><path d="M500,877.15a23.58,23.58,0,1,0-23.56-23.56A23.58,23.58,0,0,0,500,877.15Z" fill="#49c8f5"/><path d="M735.71,877.15a23.58,23.58,0,1,0-23.58-23.56A23.58,23.58,0,0,0,735.71,877.15Z" fill="#49c8f5"/><path d="M853.57,759.28A23.56,23.56,0,1,0,830,735.72,23.56,23.56,0,0,0,853.57,759.28Z" fill="#49c8f5"/><path d="M617.85,759.28a23.56,23.56,0,1,0-23.56-23.56A23.58,23.58,0,0,0,617.85,759.28Z" fill="#49c8f5"/><path d="M382.15,759.28a23.56,23.56,0,1,0-23.58-23.56A23.56,23.56,0,0,0,382.15,759.28Z" fill="#49c8f5"/><path d="M382.15,287.84a23.56,23.56,0,1,0-23.58-23.56A23.56,23.56,0,0,0,382.15,287.84Z" fill="#49c8f5"/><path d="M146.43,287.84a23.56,23.56,0,1,0-23.56-23.56A23.58,23.58,0,0,0,146.43,287.84Z" fill="#49c8f5"/><path d="M264.29,170a23.58,23.58,0,1,0-23.58-23.56A23.58,23.58,0,0,0,264.29,170Z" fill="#49c8f5"/><path d="M382.15,759.28a23.56,23.56,0,1,0-23.58-23.56A23.56,23.56,0,0,0,382.15,759.28Z" fill="#49c8f5"/><path d="M146.43,759.28a23.56,23.56,0,1,0-23.56-23.56A23.58,23.58,0,0,0,146.43,759.28Z" fill="#49c8f5"/><path d="M382.15,523.59A23.58,23.58,0,1,0,358.57,500,23.59,23.59,0,0,0,382.15,523.59Z" fill="#49c8f5"/><path d="M146.43,523.59A23.58,23.58,0,1,0,122.87,500,23.6,23.6,0,0,0,146.43,523.59Z" fill="#49c8f5"/><path d="M264.29,641.43a23.58,23.58,0,1,0-23.58-23.56A23.58,23.58,0,0,0,264.29,641.43Z" fill="#49c8f5"/><path d="M264.29,405.72a23.58,23.58,0,1,0-23.58-23.56A23.58,23.58,0,0,0,264.29,405.72Z" fill="#49c8f5"/><path d="M382.15,287.84a23.56,23.56,0,1,0-23.58-23.56A23.56,23.56,0,0,0,382.15,287.84Z" fill="#49c8f5"/><path d="M146.43,287.84a23.56,23.56,0,1,0-23.56-23.56A23.58,23.58,0,0,0,146.43,287.84Z" fill="#49c8f5"/><path d="M264.29,877.15a23.58,23.58,0,1,0-23.58-23.56A23.58,23.58,0,0,0,264.29,877.15Z" fill="#49c8f5"/><path d="M382.15,759.28a23.56,23.56,0,1,0-23.58-23.56A23.56,23.56,0,0,0,382.15,759.28Z" fill="#49c8f5"/><path d="M146.43,759.28a23.56,23.56,0,1,0-23.56-23.56A23.58,23.58,0,0,0,146.43,759.28Z" fill="#49c8f5"/><path d="M500,1000C224.29,1000,0,775.7,0,500S224.29,0,500,0s500,224.3,500,500S775.7,1000,500,1000Zm0-934.52C260.4,65.48,65.48,260.4,65.48,500S260.4,934.52,500,934.52,934.52,739.6,934.52,500,739.59,65.48,500,65.48Z" fill="#49c8f5"/></svg>