<svg id="Layer_1" data-name="Layer 1" xmlns="http://www.w3.org/2000/svg" viewBox="0 0 1000 998"><title>phone</title><path d="M157.66,1.6C150.74.22,142.44.22,136.91,3,62.23,32,15.2,138.53,4.14,211.83c-34.58,237.89,153.52,444,326.4,579.5,153.52,120.33,448.11,318.1,622.38,127.24,22.13-23.51,48.41-58.09,47-92.67-4.15-58.09-58.09-99.58-99.58-131.39C868.55,671,802.16,606,760.67,607.38c-37.34,1.38-60.85,40.11-84.37,63.62L634.81,712.5c-6.92,6.92-95.43-51.17-105.11-58.09-36-23.51-70.54-49.79-101-78.83a652.12,652.12,0,0,1-81.6-94c-6.92-9.68-63.62-94-58.09-101,0,0,48.41-52.56,62.24-73.3,29-44.26,51.17-78.83,18-131.39C356.82,156.51,341.6,141.29,325,124.7,296,97,266.92,68,233.73,44.48,215.75,30.65,185.32,5.75,157.66,1.6Z" fill="#595a5c"/></svg>