<svg id="Layer_1" data-name="Layer 1" xmlns="http://www.w3.org/2000/svg" viewBox="0 0 137 28"><title>satispay</title><g id="Page-1"><g id="satispay_logo_BLK" data-name="satispay logo BLK"><g id="Group"><g id="Shape"><path d="M34.9,17.8h.2a20.76,20.76,0,0,0,4,.5c2,0,3.4-.5,3.4-2.1,0-3-7.6-1.8-7.6-6.9,0-2.7,2.6-4.2,5.8-4.2a12.09,12.09,0,0,1,3.8.6V8h-.2a12.72,12.72,0,0,0-3.5-.7c-1.6,0-3.1.3-3.1,2,0,2.9,7.6,1.7,7.6,6.7,0,3.5-2.9,4.6-6.1,4.6a16.66,16.66,0,0,1-4.2-.5V17.8Z" fill="#e6e7e8"/><path d="M70.8,20a9.49,9.49,0,0,1-3.1.6c-1.6,0-4-.3-4-3.9v-9h-2V5.5h2V2l2.2-.5h.2v4H71V7.7H66.1v9c0,1.6,1.3,1.7,2,1.7a7.36,7.36,0,0,0,2.4-.5l.3,2.1Z" fill="#e6e7e8"/><path d="M79.9,17.8h.2a20.76,20.76,0,0,0,4,.5c2,0,3.4-.5,3.4-2.1,0-3-7.6-1.8-7.6-6.9,0-2.7,2.6-4.2,5.8-4.2a12.09,12.09,0,0,1,3.8.6V8h-.2a12.72,12.72,0,0,0-3.5-.7c-1.6,0-3.1.3-3.1,2,0,2.9,7.6,1.7,7.6,6.7,0,3.5-2.9,4.6-6.1,4.6a16.66,16.66,0,0,1-4.2-.5,18.48,18.48,0,0,1-.1-2.3Z" fill="#e6e7e8"/><path d="M93.6,5.5,95.8,5h.3V6.9A8.25,8.25,0,0,1,101.3,5c3.2,0,5.8,2.3,5.8,7.2s-2.5,8.3-7.7,8.3a15.54,15.54,0,0,1-3.2-.4v7.3l-2.2.5h-.3V5.5ZM96.1,18a16.15,16.15,0,0,0,3.3.3c3,0,5-2,5-5.8,0-3.5-1.2-5.3-3.6-5.3a7.68,7.68,0,0,0-4.7,2V18Z" fill="#e6e7e8"/><path d="M127.8,20l-5-14.5h2.9l3.5,11.4h.2l3.9-11.4h2.9l-5.5,15.2a12,12,0,0,1-5.6,7.2l-1.4-1.8c2.7-2,3.4-3,4.4-5.6" fill="#e6e7e8"/><path d="M120.5,20.2l-2.1.4h-.3V18.5H118a8.21,8.21,0,0,1-5.1,2.1,3.94,3.94,0,0,1-4-4c0-3.6,3.3-4.1,5-4.4l4-.5v-1c0-2.5-1.2-3.2-3.4-3.2a11.5,11.5,0,0,0-4.5,1l-.2-2.3a17.28,17.28,0,0,1,5.3-.9c3.1,0,5.4,1.3,5.4,5.4v9.5Zm-2.4-6.9-4,.6c-1.1.2-2.2.6-2.2,2.3a2,2,0,0,0,2.1,2.1,8.53,8.53,0,0,0,4.2-1.7l-.1-3.3Z" fill="#e6e7e8"/><path d="M58.9,10.5c0-4.2-2.3-5.4-5.4-5.4a17.82,17.82,0,0,0-5.3.9l.2,2.3a13.67,13.67,0,0,1,4.5-1c2.1,0,3.4.7,3.4,3.2v1l-4,.5c-1.8.3-5,.8-5,4.4a3.82,3.82,0,0,0,4,4,8.46,8.46,0,0,0,5.1-2.1h0v2.1h.3l2.1-.4c.1.1.1-9.5.1-9.5Zm-2.5,6.1a7.69,7.69,0,0,1-4.2,1.7,1.94,1.94,0,0,1-2.1-2.1c0-1.7,1.2-2.1,2.2-2.3l4-.6.1,3.3Z" fill="#e6e7e8"/><path d="M76.1,5.1l-2.3.4v15h.4l2.2-.4V5.1Z" fill="#e6e7e8"/><path d="M76.1,0,73.8.5V3.1h.4l2.2-.5V0Z" fill="#e6e7e8"/></g><g id="Shape-2" data-name="Shape"><path d="M23.2.9a.42.42,0,0,0-.3-.7H16.8l3.5,3.5L23.2.9Z" fill="#e6e7e8"/><path d="M13.2,9.5,8.8,5.1l-3.9,4-4,4a.37.37,0,0,0,0,.6l4,4,4,4,4.4-4.4L9.6,13.7l-.3-.3.3-.3,3.6-3.6Z" fill="#e6e7e8"/><path d="M20.3,23l-3.5,3.5h6.1a.41.41,0,0,0,.3-.7L20.3,23Z" fill="#e6e7e8"/><path d="M27.6,13.1l-4.1-4L18.9,4.5,14.8.4a.31.31,0,0,0-.2-.1H7a.41.41,0,0,0-.3.7l3.5,3.5,4.4,4.4,4.3,4.3.3.3-.3.3-4.3,4.3-4.4,4.4L6.7,26a.42.42,0,0,0,.3.7h7.6c.1,0,.2-.1.3-.1l4-4L23.5,18l4-4c.3-.5.3-.7.1-.9Z" fill="#e6e7e8"/></g></g></g></g></svg>