<svg id="Layer_1" data-name="Layer 1" xmlns="http://www.w3.org/2000/svg" viewBox="0 0 1000 964"><title>stella-vuota</title><path d="M732.22,964a124.6,124.6,0,0,1-57.76-14.24L500,858.05,325.51,949.77a124.94,124.94,0,0,1-130.7-9.47A123.36,123.36,0,0,1,145.4,818.83L178.73,624.6,37.61,487.08a124.19,124.19,0,0,1,68.75-211.82l195-28.33L388.63,70.18a124.21,124.21,0,0,1,222.74,0l87.16,176.7,195,28.33a123.51,123.51,0,0,1,100.26,84.46h0a123.4,123.4,0,0,1-31.42,127.33L821.26,624.6,854.6,818.86A124.17,124.17,0,0,1,732.22,964ZM500,770.74a40.9,40.9,0,0,1,19.07,4.71L712.62,877.19A42.86,42.86,0,0,0,756.9,874a41.92,41.92,0,0,0,16.88-41.27l-37-215.54a41,41,0,0,1,11.8-36.3L905.15,428.35a42.17,42.17,0,0,0-23.4-71.95L665.4,325a41,41,0,0,1-30.87-22.44l-96.71-196a42.21,42.21,0,0,0-75.7.05l-96.73,196A41,41,0,0,1,334.52,325L118.16,356.4a42.49,42.49,0,0,0-34,28.72,41.9,41.9,0,0,0,10.69,43.24L251.4,580.92a41,41,0,0,1,11.8,36.3l-37,215.51A41.88,41.88,0,0,0,243,874a42.39,42.39,0,0,0,44.34,3.22L480.93,775.44A41,41,0,0,1,500,770.74Z" fill="#5dbfda"/></svg>