<?xml version="1.0" encoding="utf-8"?>
<!-- Generator: Adobe Illustrator 21.0.0, SVG Export Plug-In . SVG Version: 6.00 Build 0)  -->
<!DOCTYPE svg PUBLIC "-//W3C//DTD SVG 1.1//EN" "http://www.w3.org/Graphics/SVG/1.1/DTD/svg11.dtd">
<svg version="1.1" id="Layer_1" xmlns="http://www.w3.org/2000/svg" xmlns:xlink="http://www.w3.org/1999/xlink" x="0px" y="0px"
	 viewBox="0 0 1400 99" style="enable-background:new 0 0 1400 99;" xml:space="preserve">
<style type="text/css">
	.st0{fill:#FFFFFF;}
</style>
<g>
	<path class="st0" d="M414.9,100c0-26.3-23.7-56-52.6-56h-1.3c-10.8-25.4-38.4-44-70.2-44s-59.5,18.1-70.2,44h-0.4
		c-16.7-0.1-32.5,7.3-43.1,20.2c-6.2-2.8-13-4.3-19.8-4.3c-24.1,0-44,17.7-44,40.1H414.9z"/>
	<path class="st0" d="M1109.8,100c0-15.4,13.9-32.9,30.8-32.9h0.7c6.3-14.9,22.5-25.8,41.2-25.8s34.9,10.6,41.2,25.8h0.3
		c9.8-0.1,19.1,4.3,25.3,11.9c3.7-1.6,7.6-2.5,11.6-2.5c14.2,0,25.8,10.4,25.8,23.5H1109.8z"/>
</g>
</svg>
