<svg id="Layer_1" data-name="Layer 1" xmlns="http://www.w3.org/2000/svg" viewBox="0 0 135 135"><title>login-svg</title><path d="M72.9,105.4a20.76,20.76,0,0,0,21.4-5.6l5.6-3.9s4.8,5.5,14.9,4.7c.1,0,4.6-4.6,4.6-4.6L96.3,84.1Z" fill="#061b30"/><path d="M70.4,91l-6.3,9.8s12.5,9.3,18.4,1.3S91.7,90,91.7,90s-2.2,6.2,2.8,14.3l5.1-1.2s-.2-19.4-.2-19.5A5.09,5.09,0,0,0,96.8,79c-2.2-.9-4.6.4-6.4,1.5Z" fill="#061b30"/><path d="M76,106.1c-5.9,0-12-4.5-12.3-4.7a.78.78,0,0,1-.2-1l6.3-9.8.3-.3L90.2,80c1.4-.9,4.4-2.7,7-1.6,2.1.9,3,3.4,3,5.2,0,.2.2,19.3.2,19.5a.73.73,0,0,1-.6.7L94.7,105a.83.83,0,0,1-.8-.3c-3.1-5-3.6-9.3-3.4-12-1.5,2-4.1,5.3-7.4,9.8a8.14,8.14,0,0,1-5.7,3.4A3.18,3.18,0,0,1,76,106.1Zm-10.8-5.5c1.8,1.2,7.4,4.7,12.1,4a7,7,0,0,0,4.7-2.8c5.9-7.9,9.2-12.1,9.2-12.1a.65.65,0,0,1,.9-.2.76.76,0,0,1,.3.9c0,.1-2,5.7,2.5,13.2l4-1c0-3.3-.2-18.8-.2-18.9a4.15,4.15,0,0,0-2.2-3.9c-1.6-.8-3.6.2-5.5,1.4h-.1l-20,10.3Z" fill="#fff"/><circle cx="49.7" cy="73" r="5.5" fill="#8fc0e4"/><path d="M42.4,76.1l1.4,5.7h9.1L49.2,71.5Z" fill="#8fc0e4"/><path d="M66.4,89.1c-.5,0-.7-.4-.8-.8A8.94,8.94,0,0,0,63.7,86a13.2,13.2,0,0,0-6.8-3.3,51.08,51.08,0,0,0-5.5-.5,12.75,12.75,0,0,1-2-.1c-.6,0-1.3-.1-1.9-.1-1.3-.1-2.6-.1-3.8-.2l.1-1.5c1.3,0,2.6.1,3.9.2.6,0,1.3.1,1.9.1s1.3.1,2,.1a37.85,37.85,0,0,1,5.8.5,14.79,14.79,0,0,1,7.5,3.7c.6.5,2.7,2.8,2.4,3.6l-.2.5-.7.1Z" fill="#8fc0e4"/><path d="M59.8,100.2a.71.71,0,0,1-.6-.3.78.78,0,0,1,.2-1c.1,0,7.1-4.8,9.7-6.5,1.1-.7,1.6-1.4,1.6-2a1.73,1.73,0,0,0-1.6-1.7,6.64,6.64,0,0,0-2,.6c-.1,0-6.6,3.4-6.6,3.4l-.4.2-6.2-5.4a.71.71,0,0,1,.9-1.1l5.4,4.8c1.5-.8,6.1-3.2,6.1-3.2a5.67,5.67,0,0,1,2.6-.8,3.25,3.25,0,0,1,3,3.2c0,1.7-1.6,2.8-2.2,3.2-2.6,1.8-9.6,6.5-9.7,6.5C60.1,100.2,59.9,100.2,59.8,100.2Z" fill="#8fc0e4"/><path d="M115.3,100.6a1.23,1.23,0,0,1-1-.5,1.25,1.25,0,0,1,.3-1.7l9-6.1a1.22,1.22,0,1,1,1.4,2l-9,6.1A1,1,0,0,1,115.3,100.6ZM52,68.5a4.88,4.88,0,0,0-2.4,0,1.42,1.42,0,0,0-.6.2,4.39,4.39,0,0,0-1.8,1.2,5.54,5.54,0,0,0-1.5,3.6,9.86,9.86,0,0,0,.3,2.4c1.4,5.1-3.6,6.3-6.3,5.3-3.1-1.2-8.8-11.6-1.4-18.5a10.87,10.87,0,0,1,10.1-2.1,7.85,7.85,0,0,1,5.1,7.1c0,.4-.1,1.3-.1,1.3" fill="#061b30"/><ellipse cx="54.9" cy="71.8" rx="1.2" ry="1" fill="#8fc0e4"/><path d="M46.5,76.8a2.7,2.7,0,1,1,2.7-2.7A2.69,2.69,0,0,1,46.5,76.8Zm0-4.4a1.7,1.7,0,1,0,1.7,1.7A1.69,1.69,0,0,0,46.5,72.4Z" fill="#fff"/><path d="M51.1,72a2.14,2.14,0,0,1-2-1.4.47.47,0,1,1,.9-.3,1.24,1.24,0,0,0,1.7.6.47.47,0,0,1,.3.9A2.92,2.92,0,0,1,51.1,72Zm3,3.4a2.92,2.92,0,0,1-.9-.2h-.1a.47.47,0,0,1,.3-.9h.1a1,1,0,0,0,.9,0,.51.51,0,1,1,.5.9A1.88,1.88,0,0,1,54.1,75.4Z" fill="#061b30"/><path d="M130.1,89.1l.1-.1A.1.1,0,0,1,130.1,89.1Zm2.4,1.3c0,.1-.1.2-.1.3A.37.37,0,0,0,132.5,90.4Z" fill="#d7f2fd"/><path d="M131.2,88.6a1,1,0,0,0-.9.4l-.1.1a54.5,54.5,0,1,1-64.1-86h.1A1.34,1.34,0,0,0,67,1.8,1.42,1.42,0,0,0,66.1.5a1.1,1.1,0,0,0-.8,0,67.07,67.07,0,1,0,67.1,90.2c0-.1.1-.2.1-.3s.1-.2.1-.4a1.51,1.51,0,0,0-1.4-1.4Z" fill="#d7f2fd"/><path d="M95.5,107.3a1.19,1.19,0,0,1-1.2-1,1.17,1.17,0,0,1,1-1.4l10.6-2.1a1.22,1.22,0,1,1,.4,2.4l-10.6,2.1Z" fill="#061b30"/></svg>