<svg id="Layer_1" data-name="Layer 1" xmlns="http://www.w3.org/2000/svg" viewBox="0 0 2267 576"><title>Artboard 1</title><path d="M415.32,43.8C388.66,13.43,340.48.4,278.85.4H100A25.62,25.62,0,0,0,74.66,22L.21,494.42a15.35,15.35,0,0,0,15.17,17.74H125.81l27.74-175.92-.86,5.51a25.54,25.54,0,0,1,25.2-21.61h52.48c103.09,0,183.81-41.87,207.39-163q1.05-5.37,1.83-10.48c7-44.77,0-75.25-24.26-102.84" fill="#003087"/><path d="M1767.25,268.6c-6.75,44.33-40.6,44.33-73.33,44.33h-18.63l13.07-82.76a10.28,10.28,0,0,1,10.16-8.68h8.55c22.29,0,43.34,0,54.2,12.69,6.48,7.59,8.44,18.87,6,34.42M1753,152.95H1629.51a17.2,17.2,0,0,0-17,14.49l-49.9,316.63A10.3,10.3,0,0,0,1572.8,496h63.37A12,12,0,0,0,1648,485.84L1662.2,396a17.16,17.16,0,0,1,16.94-14.49h39.07c81.36,0,128.3-39.34,140.56-117.37,5.52-34.1.22-60.92-15.75-79.69-17.56-20.63-48.69-31.56-90-31.56" fill="#009cde"/><path d="M886.47,268.6c-6.75,44.33-40.6,44.33-73.35,44.33H794.49l13.07-82.76a10.28,10.28,0,0,1,10.16-8.68h8.55c22.29,0,43.34,0,54.2,12.69,6.5,7.59,8.45,18.87,6,34.42M872.22,152.95H748.73a17.18,17.18,0,0,0-17,14.49L681.86,484.07A10.29,10.29,0,0,0,692,496h59a17.16,17.16,0,0,0,16.94-14.49l13.49-85.42a17.15,17.15,0,0,1,16.94-14.49h39.07c81.36,0,128.3-39.36,140.56-117.39,5.52-34.1.22-60.92-15.75-79.69-17.56-20.63-48.69-31.56-90-31.56m286.68,229.35c-5.73,33.79-32.53,56.47-66.74,56.47-17.15,0-30.89-5.52-39.71-16s-12-25.11-9.27-41.52c5.32-33.5,32.58-56.9,66.27-56.9,16.8,0,30.41,5.57,39.42,16.11s12.63,25.46,10,41.81m82.41-115.11H1182.2a10.3,10.3,0,0,0-10.19,8.71l-2.58,16.53-4.14-6c-12.8-18.58-41.35-24.81-69.85-24.81-65.33,0-121.13,49.52-132,118.93-5.65,34.66,2.37,67.76,22,90.86,18,21.22,43.78,30.06,74.47,30.06,52.67,0,81.87-33.82,81.87-33.82l-2.64,16.43A10.29,10.29,0,0,0,1149.33,496h53.24a17.16,17.16,0,0,0,17-14.49l32-202.41a10.3,10.3,0,0,0-10.19-11.89" fill="#003087"/><path d="M2039.7,382.28c-5.73,33.79-32.53,56.47-66.74,56.47-17.15,0-30.89-5.52-39.71-16s-12-25.11-9.27-41.52c5.32-33.5,32.56-56.9,66.27-56.9,16.8,0,30.41,5.57,39.42,16.11s12.63,25.46,10,41.81m82.41-115.11H2063a10.3,10.3,0,0,0-10.19,8.71l-2.58,16.53-4.14-6c-12.8-18.58-41.35-24.81-69.85-24.81-65.31,0-121.12,49.52-132,118.93-5.65,34.66,2.39,67.76,22,90.86,18,21.22,43.78,30.06,74.47,30.06,52.68,0,81.88-33.82,81.88-33.82L2020,484.08A10.25,10.25,0,0,0,2030.12,496h53.23a17.19,17.19,0,0,0,17-14.49l32-202.41a10.3,10.3,0,0,0-10.19-11.89" fill="#009cde"/><path d="M1556.27,267.18h-59.45a17.09,17.09,0,0,0-14.17,7.53l-82,120.75-34.76-116a17.2,17.2,0,0,0-16.45-12.26H1291a10.3,10.3,0,0,0-9.74,13.63l65.44,192.11-61.55,86.85a10.3,10.3,0,0,0,8.41,16.24H1353a17.19,17.19,0,0,0,14.09-7.37l197.65-285.28a10.29,10.29,0,0,0-8.44-16.16" fill="#003087"/><path d="M2191.8,161.66l-50.69,322.43A10.3,10.3,0,0,0,2151.28,496h51a17.18,17.18,0,0,0,17-14.49l50-316.65A10.29,10.29,0,0,0,2259,152.95h-57a10.27,10.27,0,0,0-10.17,8.69" fill="#009cde"/><path d="M415.32,43.8C388.66,13.43,340.48.4,278.85.4H100A25.62,25.62,0,0,0,74.66,22L.21,494.42a15.35,15.35,0,0,0,15.17,17.74H125.81l27.74-175.92-.86,5.51a25.54,25.54,0,0,1,25.2-21.61h52.48c103.09,0,183.81-41.87,207.39-163q1.05-5.37,1.83-10.48c7-44.77,0-75.25-24.26-102.84" fill="#003087"/><path d="M183.34,147.25a22.42,22.42,0,0,1,22.12-18.9H345.69a294.83,294.83,0,0,1,46.25,3.34,194.34,194.34,0,0,1,22.93,5.13,126.69,126.69,0,0,1,24.69,9.84c7-44.79,0-75.25-24.25-102.85C388.65,13.44,340.48.42,278.85.42H100A25.62,25.62,0,0,0,74.67,22L.19,494.39a15.35,15.35,0,0,0,15.16,17.75H125.8L153.53,336.2Z" fill="#003087"/><path d="M439.58,146.64q-.82,5.25-1.83,10.48c-23.58,121.12-104.3,163-207.39,163H177.86a25.51,25.51,0,0,0-25.19,21.61L125.8,512.12l-7.64,48.34A13.44,13.44,0,0,0,131.43,576h93.09a22.41,22.41,0,0,0,22.12-18.9l.91-4.74,17.55-111.2,1.11-6.15a22.4,22.4,0,0,1,22.13-18.9h13.93c90.18,0,160.79-36.62,181.43-142.59,8.6-44.26,4.14-81.25-18.63-107.22a88.91,88.91,0,0,0-25.49-19.66" fill="#009cde"/><path d="M414.89,136.82q-5.4-1.6-11.13-2.87c-3.82-.84-7.77-1.59-11.81-2.23a289.16,289.16,0,0,0-46.27-3.39H205.45a22.35,22.35,0,0,0-22.12,18.91l-29.81,189-.86,5.49a25.51,25.51,0,0,1,25.19-21.61h52.49c103.09,0,183.81-41.87,207.39-163,.7-3.58,1.29-7.05,1.83-10.48a127.34,127.34,0,0,0-19.39-8.18c-1.74-.57-3.5-1.11-5.3-1.66" fill="#012169"/></svg>