<?xml version="1.0" encoding="utf-8"?>
<!-- Generator: Adobe Illustrator 21.0.0, SVG Export Plug-In . SVG Version: 6.00 Build 0)  -->
<!DOCTYPE svg PUBLIC "-//W3C//DTD SVG 1.1//EN" "http://www.w3.org/Graphics/SVG/1.1/DTD/svg11.dtd">
<svg version="1.1" id="Layer_1" xmlns="http://www.w3.org/2000/svg" xmlns:xlink="http://www.w3.org/1999/xlink" x="0px" y="0px"
	 viewBox="0 0 1440 100" style="enable-background:new 0 0 1440 100;" xml:space="preserve">
<style type="text/css">
	.st0{fill:#FFFFFF;}
</style>
<path class="st0" d="M0,0v100h132.1c8.5-6.6,19-10.2,30-10.1h0.4c9.4-22.7,33.7-38.6,61.6-38.6s52.2,16.3,61.6,38.6h1.1
	c9.9,0,19,4,26.5,10.1h774.4c7.3-17.4,24.1-32.4,43.5-32.4h1.1c9.7-22.9,34.5-39.6,63.2-39.6c28.7,0,53.5,16.3,63.2,39.6h0.4
	c15-0.1,29.3,6.6,38.8,18.2c5.6-2.5,11.7-3.8,17.9-3.9c14.6,0,27.5,7.2,34.3,18.1h89.7V0H0z"/>
</svg>
