<svg id="Layer_1" data-name="Layer 1" xmlns="http://www.w3.org/2000/svg" viewBox="0 0 1000 1209"><title>bag</title><path d="M656.53,238.36c0-86.31-70.22-156.53-156.53-156.53S343.46,152.06,343.46,238.36v10H656.53Z" fill="none"/><path d="M932.4,341.07a94.72,94.72,0,0,0-94.58-92.71H737.61v-10C737.61,107.35,631,.76,500,.76S262.38,107.35,262.38,238.36v10H162.16a94.71,94.71,0,0,0-94.58,92.71L.14,1165.15A40.55,40.55,0,0,0,40.54,1209H959.46a40.55,40.55,0,0,0,40.41-43.85ZM343.46,238.36c0-86.31,70.22-156.53,156.54-156.53s156.53,70.22,156.53,156.53v10H343.46Z" fill="#0f123b"/></svg>