<svg id="Layer_1" data-name="Layer 1" xmlns="http://www.w3.org/2000/svg" viewBox="0 0 1000 601"><title>carta</title><path d="M917.52,108.12H732.19v-25A82.57,82.57,0,0,0,649.72.65H82.48A82.57,82.57,0,0,0,0,83.12V411a82.57,82.57,0,0,0,82.48,82.48H267.81v25A82.57,82.57,0,0,0,350.28,601H917.52A82.57,82.57,0,0,0,1000,518.53V190.6A82.57,82.57,0,0,0,917.52,108.12Zm0,42.73a39.79,39.79,0,0,1,39.74,39.74v33.69H732.19V150.86ZM42.73,411V83.12A39.79,39.79,0,0,1,82.48,43.38H649.72a39.79,39.79,0,0,1,39.75,39.74V411a39.79,39.79,0,0,1-39.75,39.74H82.48A39.79,39.79,0,0,1,42.73,411ZM917.52,558.27H350.28a39.79,39.79,0,0,1-39.74-39.74v-25H649.72A82.57,82.57,0,0,0,732.19,411V316.17H957.27V518.53A39.79,39.79,0,0,1,917.52,558.27Z" fill="#abadae"/><rect x="85.48" y="371.72" width="272.58" height="36.32" fill="#abadae"/><rect x="384.86" y="371.72" width="88.88" height="36.32" fill="#abadae"/><path d="M592.59,73.3a67,67,0,1,0,66.95,67A67,67,0,0,0,592.59,73.3Zm0,108.26a41.31,41.31,0,1,1,41.31-41.31A41.36,41.36,0,0,1,592.59,181.56Z" fill="#abadae"/></svg>