<?xml version="1.0" encoding="utf-8"?>
<!-- Generator: Adobe Illustrator 21.0.0, SVG Export Plug-In . SVG Version: 6.00 Build 0)  -->
<!DOCTYPE svg PUBLIC "-//W3C//DTD SVG 1.1//EN" "http://www.w3.org/Graphics/SVG/1.1/DTD/svg11.dtd">
<svg version="1.1" id="Layer_1" xmlns="http://www.w3.org/2000/svg" xmlns:xlink="http://www.w3.org/1999/xlink" x="0px" y="0px"
	 viewBox="0 0 1000 267" style="enable-background:new 0 0 1000 267;" xml:space="preserve">
<style type="text/css">
	.st0{fill:#1D1D1B;}
</style>
<title>credits</title>
<path class="st0" d="M373.8,153.6c0.1,4.2-0.7,8.4-2.3,12.3c-1.4,3.5-3.6,6.5-6.4,9.1c-2.9,2.5-6.2,4.4-9.8,5.6
	c-3.9,1.3-8,1.9-12.1,1.9h-42.6v-98h40.6c5.8-0.2,11.6,1,16.9,3.5c4.5,2.2,8.2,5.6,10.7,9.9c2.5,4.6,3.8,9.7,3.7,14.9
	c0.1,4.3-1.1,8.5-3.5,12c-1.9,2.9-4.4,5.4-7.2,7.4c3.3,2,6.2,4.6,8.5,7.6C372.9,143.9,374.2,148.8,373.8,153.6z M348.4,114.1
	c0.2-4.3-3.1-7.9-7.4-8.1c-0.5,0-0.9,0-1.4,0.1h-15V122h15c2.4,0.2,4.8-0.6,6.6-2.3C347.6,118.2,348.4,116.2,348.4,114.1
	L348.4,114.1z M349.8,152.2c0.1-2.2-0.7-4.4-2.1-6.1c-1.8-1.8-4.2-2.7-6.7-2.5h-16.3v16.9h16.3c2.5,0.2,5-0.7,6.7-2.5
	C348.9,156.4,349.7,154.4,349.8,152.2L349.8,152.2z M459.2,161.1h-42.6v-17.4H453v-21.3h-36.4v-16.4h42.6V84.4h-66.6v97.8h66.6
	L459.2,161.1z M545,140c-1-3.5-3-6.6-5.5-9.2c-5.4-4.7-12.2-7.5-19.3-8.1l-11.9-1.6c-2.5-0.2-4.9-1.2-6.7-2.9
	c-1.3-1.2-2-2.8-1.9-4.6c0.1-2.4,1.2-4.7,3-6.3c2.5-2,5.6-3,8.8-2.8c3.5-0.1,7,0.3,10.5,1c3.1,0.8,5.9,2.5,8.1,4.8l15.3-15
	c-4-4-8.8-7.1-14.1-8.9c-6.1-2-12.5-2.9-18.9-2.8c-6.6-0.2-13.2,1.1-19.3,3.9c-10.5,4.8-17.1,15.4-16.7,27
	c-0.6,7.3,1.9,14.6,6.8,20.1c5.4,4.9,12.4,7.9,19.7,8.5l11.9,1.7c2.4,0.1,4.6,1.1,6.4,2.6c1.4,1.6,2.1,3.7,1.9,5.8
	c0,5.9-4.7,8.8-14.1,8.8c-4.2,0-8.3-0.5-12.3-1.7c-3.6-0.9-6.9-2.7-9.6-5.3l-15.5,15.5c4.4,4.6,9.9,8.1,16,10c6.9,2,14,3,21.2,2.9
	c6.5,0.1,13-1.1,19.1-3.6c5.5-2.2,10.2-5.8,13.7-10.6c3.4-4.8,5.2-10.7,5.1-16.6C546.8,148.4,546.2,144.1,545,140L545,140z
	 M637.6,116c0,5.4-1.3,10.7-3.9,15.5c-2.6,4.8-6.5,8.9-11.3,11.6c-5.5,3-11.8,4.5-18.1,4.2h-14.7v35h-24.1V84.4h38.8
	c6.3-0.2,12.5,1.2,18.1,4.2c4.8,2.7,8.8,6.7,11.5,11.6C636.4,105.1,637.7,110.5,637.6,116L637.6,116z M613.5,116
	c0-1.7-0.4-3.4-1.3-4.9c-0.8-1.5-2.1-2.8-3.6-3.6c-1.7-0.9-3.6-1.4-5.6-1.4h-13.7v19.8H603c2,0.1,3.9-0.4,5.6-1.4
	c1.5-0.9,2.8-2.1,3.6-3.6C613.1,119.4,613.5,117.7,613.5,116L613.5,116z M724.7,133.5v3.3c0,5.5,0,10.2-0.6,14.1
	c-0.4,3.9-1.3,7.8-2.7,11.4c-1.5,3.7-3.7,7.1-6.6,9.9c-3.4,3.5-7.5,6.3-12,8.2c-4.9,2-10.1,2.9-15.4,2.8c-3.6,0.1-7.3-0.4-10.8-1.2
	c-3.1-0.8-6.1-2-8.8-3.7c-2.8-1.7-5.4-3.7-7.7-6.1c-4.1-4-6.9-9.1-8-14.7c-1.3-6.9-1.9-13.8-1.7-20.8v-6.6c-0.1-7,0.4-14,1.7-20.9
	c1.2-5.6,4.1-10.7,8.2-14.7c3.4-3.6,7.5-6.5,12.1-8.5c9.9-3.6,20.8-3.6,30.7,0c4.5,1.9,8.6,4.7,12,8.3c2.9,2.8,5.1,6.2,6.6,10
	c1.4,3.7,2.3,7.5,2.7,11.5c0.4,4,0.6,8.7,0.6,14.1L724.7,133.5z M700.6,133.5c0.1-5.7-0.1-11.3-0.8-16.9c-0.3-2.5-1.3-4.9-2.7-7
	c-1-1.4-2.4-2.4-3.9-3.1c-1.8-0.8-3.8-1.3-5.8-1.2c-1.9-0.2-3.9,0.1-5.7,0.8c-1.6,0.7-3.1,1.8-4.2,3.1c-0.9,1.1-1.5,2.4-2,3.8
	c-0.7,2.3-1.1,4.6-1.2,6.9c-0.3,3.1-0.4,7.6-0.4,13.3c0,5.8,0.1,10.2,0.4,13.3c0.1,2.3,0.5,4.7,1.2,6.9c0.5,1.4,1.1,2.6,2,3.8
	c4.6,5.3,12.6,6,17.9,1.4c0.5-0.4,1-0.9,1.4-1.4c1.4-2.1,2.3-4.5,2.7-7C700.3,144.7,700.7,139.1,700.6,133.5L700.6,133.5z
	 M791.4,124.1l33.5-39.7h-29.6l-28.4,34.7V84.4h-23.9v97.8h23.9v-30.7l8.5-9.5l22.6,40.2h28L791.4,124.1z M905,161.1h-42.6v-17.4
	h36.4v-21.3h-36.4v-16.4H905V84.4h-66.6v97.8H905L905,161.1z M1000,84.4h-24.1v49.3l-31.4-49.3h-21.2v97.8h24.1V133l31.4,49.3h21.2
	L1000,84.4z M227.5,39.2C175.4-12.7,91.1-12.7,39,39.2l0,0L37.3,41l0,0c-51.1,53-49.5,137.4,3.5,188.5c24.8,23.9,58,37.3,92.5,37.3
	l0,0c35.3,0.1,69.2-13.9,94.2-39l0,0C279.4,175.6,279.4,91.3,227.5,39.2 M219,47.7c47.4,47.5,47.4,124.4,0,171.9
	c-40,40.1-104.9,40.1-145,0.1c-8.3-8.3-15.1-17.9-20.1-28.4l0.2-0.6c-0.5-1-0.9-2-1.4-3L52,186c-0.3-0.7-0.6-1.4-0.8-2.1l-1-2.8
	l-0.4-1.2c-0.4-1.2-0.8-2.4-1.2-3.6v-0.6c-0.4-1.4-0.8-2.8-1.1-4.2l0,0c-6.7-27.6-1.7-56.7,13.9-80.4l0,0c0.8-1.2,1.6-2.3,2.5-3.5
	l0.5-0.8l2.2-2.9l0.9-1.2l2.2-2.6l1.1-1.3c1.1-1.3,2.3-2.5,3.6-3.7l2.2-2.2l0,0l2-1.7l0.5-0.4l1.7-1.4l0.8-0.6l1.4-1l1.2-0.8
	l1.1-0.7l1.6-1l0.8-0.5l2-1.1l0.5-0.3l2.4-1.2l0,0c3.7-1.8,7.6-3.2,11.6-4.2h0.3l2.6-0.6h1.1l1.8-0.3l2.8-0.3l0,0
	c2.1,0,4.2-0.3,6.4-0.3c29.4-0.3,55.2,19.3,62.7,47.7c-2.4-4-5.2-7.6-8.5-10.9c-22.2-22.2-58.1-22.3-80.4-0.1l-0.1,0.1l0,0
	c-28.4,30.8-26.5,78.9,4.4,107.3c29.1,26.8,73.9,26.8,103,0l4.2-4.2c42.2-47,38.3-119.2-8.6-161.4c-6.2-5.6-13-10.5-20.3-14.6
	l-1.4-0.8l-2.7-1.4l-0.6-0.3c18.1,5.9,34.6,16.1,48.1,29.7 M101.4,101.5L101.4,101.5c17.6-17.4,46-17.2,63.4,0.4s17.2,46-0.4,63.4
	c-17.6,17.4-46,17.2-63.4-0.4c-17.2-17.5-17.2-45.5,0-63L101.4,101.5 M11.7,133.4c-0.1-32.2,12.7-63.1,35.5-85.8l0,0
	c1-1,1.9-1.9,3-2.8l0.8-0.7l2.5-2.2l1.7-1.3l2-1.6l2.1-1.6l1.4-1l2.8-1.9l0.7-0.3l3.7-2.5l0,0c17.2-10.1,36.9-15,56.9-14.1l0,0
	l4.2,0.3h0.8l4.5,0.6h0.4l4.7,0.8l0,0l4.8,1.1h0.3l3.9,1.1h0.7l3.5,1.1l1.3,0.4l2.7,1l2.1,0.8l1.7,0.7l3.1,1.4l0.5,0.3
	c51.1,24.5,72.6,85.8,48.1,136.9c-4.2,8.8-9.7,16.9-16.2,24.2c-1.1,1.3-2.4,2.5-3.6,3.8c-25,25.1-65.7,25.2-90.8,0.2
	c-8.2-8.2-14.1-18.5-16.9-29.8c15.9,27.1,50.7,36.1,77.8,20.2c4.2-2.4,8-5.4,11.4-8.8l0,0l0.6-0.6l0.8-0.9l1.7-1.7l0.8-0.9l1.8-2.1
	l0.5-0.6l1.9-2.5l0.2-0.3c24.3-34.1,16.4-81.5-17.7-105.8c-6.6-4.7-14-8.4-21.8-10.8h-0.4l-2.9-0.8h-0.7l-2.9-0.6h-0.7l-3.4-1.4H131
	c-5-0.7-10-1-15-0.7l0,0l-3.5,0.3l-2.8,0.3h-0.8c-8.5,1.2-16.7,3.9-24.3,7.9l0,0l-2.8,1.6l-0.5,0.3L79.1,56l-1,0.6l-1.9,1.2l-1.4,1
	l-1.3,1l-1.8,1.4L71,61.8l-2.1,1.8l-0.3,0.3c-0.8,0.8-1.7,1.5-2.4,2.3s-2.7,2.8-4,4.2l-1.1,1.3c-0.9,1-1.8,2-2.7,3.1L57.5,76
	c-0.9,1.1-1.8,2.3-2.7,3.4l-0.5,0.7c-1,1.4-1.9,2.7-2.8,4.2l0,0C32,114,27.3,151,38.8,184.6v0.4c0.5,1.3,1,2.6,1.5,3.9l0.6,1.4
	c0.4,0.9,0.8,1.9,1.2,2.8l1.1,2.5l0.7,1.4c11.1,22.7,29.4,41,52,52.1C45.7,233,11.7,186.2,11.7,133.4 M109.4,140
	c-3.6-0.3-6.3-3.4-6-7c0.3-3.2,2.8-5.7,6-6h17.4v-17.4c0-3.6,2.9-6.5,6.5-6.5c3.6,0,6.5,2.9,6.5,6.5V127h17.4c3.6,0.3,6.3,3.4,6,7
	c-0.3,3.2-2.8,5.7-6,6h-17.4v17.4c0,3.6-2.9,6.5-6.5,6.5c-3.6,0-6.5-2.9-6.5-6.5V140H109.4"/>
</svg>
