<svg id="Layer_1" data-name="Layer 1" xmlns="http://www.w3.org/2000/svg" viewBox="0 0 1000 699"><title>cuscino</title><path d="M965.53,549.74c8.61-27.31,21.55-87.19,21.55-200.44s-12.94-173.13-21.55-200.44c28.47-33.52,40-69.19,31.85-99.72-6.19-23.13-23-40-46.15-46.15-31-8.32-67.43,3.78-101.45,33.35-35.41-7.44-135.17-23-349.4-23s-314,15.6-349.4,23c-20.68-18-42.4-29.58-63.48-33.86-26.29-5.35-50.77,1-67.19,17.44-25.62,25.63-30.44,75.68,14.92,129-8.61,27.31-21.54,87.2-21.54,200.43s12.93,173.1,21.54,200.42C6.18,583.78-5.69,619.88,2.56,650.63c6.15,23,22.85,39.67,45.82,45.82A76.4,76.4,0,0,0,68.19,699c26.41,0,55.32-12.76,82.82-36.73,35.42,7.44,135.18,23,349.38,23s314-15.59,349.39-23c34.05,29.58,70.45,41.73,101.51,33.39,23.13-6.2,39.94-23,46.14-46.13C1005.61,619,994,583.29,965.53,549.74ZM945.44,635.6a10.39,10.39,0,0,1-8.08,8.08c-11.19,3-33.86-3-60.77-30l-11.48-11.3L849.73,607c-.82.25-85.18,24.49-349.35,24.49S151.86,607.24,151.18,607l-15.52-4.81-11.48,11.48c-27.54,27.55-50.53,33.79-61.88,30.75-4.29-1.15-6.61-3.47-7.76-7.76-3-11.33,3.2-34.33,30.75-61.88L99.55,561.2l-9.28-17.56C90,543.17,67.51,495,67.51,349.31S90,155.44,90,155.4l9.28-17.56-14-14C53.65,92.16,50.52,65.82,58.37,58c2.35-2.35,6.22-3.56,11.06-3.56a37.09,37.09,0,0,1,7.35.8c14.35,2.92,31.18,13.46,47.4,29.68l11.48,11.3L151,91.61c.82-.24,85.18-24.49,349.35-24.49s348.53,24.24,349.2,24.44l15.52,4.81,11.48-11.48C903.47,58,926.08,52,937.31,55a10.42,10.42,0,0,1,8.1,8.1c3,11.21-3,33.84-29.92,60.72l-14.26,13.62L910.51,155c.23.47,22.76,48.61,22.76,194.33s-22.53,193.86-22.54,193.91l-9.28,17.56,14,14C942.4,601.74,948.45,624.38,945.44,635.6Z" fill="#abadae"/></svg>