<svg id="Layer_1" data-name="Layer 1" xmlns="http://www.w3.org/2000/svg" viewBox="0 0 996.75 995.75"><title>custom</title><rect x="916.75" y="915.75" width="80" height="80" fill="#231f20"/><path d="M844.53,995.75H767.29v-80h77.24Zm-154.48,0H612.81v-80h77.24Z" fill="#231f20"/><path d="M80,389H0V311.71H80Zm0-154.48H0V157.24H80Z" fill="#231f20"/><rect width="80" height="80" fill="#231f20"/><path d="M381.1,80H303.86V0H381.1ZM226.62,80H149.39V0h77.24Z" fill="#231f20"/><path d="M996.75,843.85h-80V766.62h80Zm0-154.48h-80V612.14h80Z" fill="#231f20"/><path d="M514.16,915.75H136.6L498.37,554.41l-56.6-56.53L80,859.22V481.59a40,40,0,1,0-80,0V995.75H514.16a40,40,0,0,0,0-80Z" fill="#231f20"/><path d="M482.58,0a40,40,0,1,0,0,80H860.14L498.37,441.34,555,497.88,916.75,136.53V514.16a40,40,0,0,0,80,0V0Z" fill="#231f20"/></svg>