<svg id="Layer_1" data-name="Layer 1" xmlns="http://www.w3.org/2000/svg" viewBox="0 0 1000 1858"><title>detergente</title><path d="M954.31,955.56c-25.1-116.24-138-385.16-193.47-513.57a124.81,124.81,0,0,0,73.38-113.53V308.55c0-63.08-47.12-115.24-108-123.46V146.63C726.23,66.17,660.78.72,580.31.72H419.69c-80.46,0-145.92,65.46-145.92,145.92v38.45c-60.86,8.22-108,60.38-108,123.46v19.91A124.81,124.81,0,0,0,239,441.92C183.38,569.7,70.16,837.28,43.84,957,3.29,1141.44.11,1688.66,0,1712.08,0,1792.54,65.46,1858,145.92,1858H854.09c80.46,0,145.92-65.46,145.92-146.31C999.79,1688.46,994.28,1140.7,954.31,955.56ZM419.69,87H580.31A59.75,59.75,0,0,1,640,146.63v37.19H360V146.63A59.75,59.75,0,0,1,419.69,87ZM252,308.55a38.52,38.52,0,0,1,38.48-38.48h419A38.52,38.52,0,0,1,748,308.55v19.91a38.52,38.52,0,0,1-38.48,38.48h-42c-.44,0-.86-.1-1.29-.1H333.66c-.44,0-.86.09-1.3.1H290.51A38.52,38.52,0,0,1,252,328.45ZM854.09,1771.77H145.92a59.71,59.71,0,0,1-59.68-59.47c0-5.59,3.23-561.23,41.83-736.8C154.81,853.87,286.4,548.64,326.1,458a8.17,8.17,0,0,1,6.9-4.81H666.89A8.16,8.16,0,0,1,673.8,458C713.41,549.23,844.58,856,870,973.76c38.12,176.59,43.7,733.12,43.75,738.32A59.75,59.75,0,0,1,854.09,1771.77Z" fill="#abadae"/></svg>