<?xml version="1.0" encoding="utf-8"?>
<!-- Generator: Adobe Illustrator 21.0.0, SVG Export Plug-In . SVG Version: 6.00 Build 0)  -->
<!DOCTYPE svg PUBLIC "-//W3C//DTD SVG 1.1//EN" "http://www.w3.org/Graphics/SVG/1.1/DTD/svg11.dtd">
<svg version="1.1" id="Layer_1" xmlns="http://www.w3.org/2000/svg" xmlns:xlink="http://www.w3.org/1999/xlink" x="0px" y="0px"
	 viewBox="0 0 43 56" style="enable-background:new 0 0 43 56;" xml:space="preserve">
<g>
	<path d="M28.3,1.5c-1-1-2.4-1.5-3.8-1.5h-15C4.3,0,0,4.3,0,9.5v37C0,51.7,4.3,56,9.5,56h24c5.2,0,9.5-4.3,9.5-9.5V17.7
		c0-1.5-0.6-3-1.7-4L28.3,1.5z M40,46.5c0,3.6-2.9,6.5-6.5,6.5h-24C5.9,53,3,50.1,3,46.5v-37C3,5.9,5.9,3,9.5,3h15h0.1v9
		c0,3,2.5,5.5,5.5,5.5H40c0,0.1,0,0.2,0,0.2V46.5z"/>
</g>
<path d="M34.8,34.2c-0.4-0.8-1.4-1.2-3.1-1.2c-1,0-2.2,0.1-3.6,0.4c-2-2.1-4-5.2-5.5-8.2c1.4-6.1,0.5-7.3,0.2-7.7s-0.8-0.7-1.4-0.7
	c-0.2,0-0.5,0-0.7,0.1c-0.6,0.2-1.1,0.7-1.4,1.3c-0.8,1.7,0.2,4.8,1.3,7.1c-0.9,3.7-2.5,8.1-4.1,11.7c-4.1,1.9-6.3,3.7-6.5,5.5
	c-0.1,0.6,0.1,1.6,1.2,2.4c0.3,0.2,0.7,0.4,1,0.4c0.9,0,1.9-0.7,3-2.3c0.8-1.1,1.7-2.7,2.6-4.6c2.9-1.3,6.5-2.4,9.6-3.1
	c1.7,1.6,3.2,2.5,4.6,2.5c1,0,1.8-0.4,2.4-1.3C35,35.6,35.2,34.8,34.8,34.2z M12.3,43.4c-0.5-0.4-0.5-0.7-0.5-0.7
	c0.1-0.6,1-1.7,3.3-3C13.4,42.9,12.5,43.4,12.3,43.4z M20.9,18.9c0.1-0.2,0.2-0.2,0.3-0.3h0.1c0.2,0.2,0.4,1.2,0,3.5
	C20.9,20.8,20.6,19.5,20.9,18.9z M18.9,36c1.1-2.6,2.1-5.5,2.9-8.2c1.2,2.2,2.7,4.3,4.1,6C23.7,34.3,21.2,35.1,18.9,36z M32.9,35.4
	c-0.3,0.5-0.7,0.5-0.9,0.5c-0.6,0-1.4-0.4-2.2-1c0.7-0.1,1.4-0.1,1.9-0.1c1,0,1.4,0.1,1.5,0.2C33.1,35.1,33.1,35.2,32.9,35.4z"/>
</svg>
