<svg xmlns="http://www.w3.org/2000/svg" xmlns:xlink="http://www.w3.org/1999/xlink" version="1.1" x="0px" y="0px" viewBox="0 0 92 117.5" style="enable-background:new 0 0 92 94;" xml:space="preserve"><g><path d="M51.8,22.5c-1-1-2.4-1.5-3.8-1.5H33c-5.2,0-9.5,4.3-9.5,9.5v37c0,5.2,4.3,9.5,9.5,9.5h24c5.2,0,9.5-4.3,9.5-9.5V38.7   c0-1.5-0.6-3-1.7-4L51.8,22.5z M63.5,67.5c0,3.6-2.9,6.5-6.5,6.5H33c-3.6,0-6.5-2.9-6.5-6.5v-37c0-3.6,2.9-6.5,6.5-6.5h15h0.1v9   c0,3,2.5,5.5,5.5,5.5h9.9c0,0.1,0,0.2,0,0.2V67.5z"/></g><path d="M58.3,55.2c-0.4-0.8-1.4-1.2-3.1-1.2c-1,0-2.2,0.1-3.6,0.4c-2-2.1-4-5.2-5.5-8.2c1.4-6.1,0.5-7.3,0.2-7.7  c-0.3-0.4-0.8-0.7-1.4-0.7c-0.2,0-0.5,0-0.7,0.1c-0.6,0.2-1.1,0.7-1.4,1.3C42,40.9,43,44,44.1,46.3C43.2,50,41.6,54.4,40,58  c-4.1,1.9-6.3,3.7-6.5,5.5c-0.1,0.6,0.1,1.6,1.2,2.4c0.3,0.2,0.7,0.4,1,0.4c0.9,0,1.9-0.7,3-2.3c0.8-1.1,1.7-2.7,2.6-4.6  c2.9-1.3,6.5-2.4,9.6-3.1c1.7,1.6,3.2,2.5,4.6,2.5c1,0,1.8-0.4,2.4-1.3C58.5,56.6,58.7,55.8,58.3,55.2z M35.8,64.4  c-0.5-0.4-0.5-0.7-0.5-0.7c0.1-0.6,1-1.7,3.3-3C36.9,63.9,36,64.4,35.8,64.4z M44.4,39.9c0.1-0.2,0.2-0.2,0.3-0.3c0,0,0.1,0,0.1,0  c0.2,0.2,0.4,1.2,0,3.5C44.4,41.8,44.1,40.5,44.4,39.9z M42.4,57c1.1-2.6,2.1-5.5,2.9-8.2c1.2,2.2,2.7,4.3,4.1,6  C47.2,55.3,44.7,56.1,42.4,57z M56.4,56.4c-0.3,0.5-0.7,0.5-0.9,0.5c-0.6,0-1.4-0.4-2.2-1c0.7-0.1,1.4-0.1,1.9-0.1  c1,0,1.4,0.1,1.5,0.2C56.6,56.1,56.6,56.2,56.4,56.4z"/><text x="0" y="109" fill="#000000" font-size="5px" font-weight="bold" font-family="'Helvetica Neue', Helvetica, Arial-Unicode, Arial, Sans-serif">Created by Idevã Batista</text><text x="0" y="114" fill="#000000" font-size="5px" font-weight="bold" font-family="'Helvetica Neue', Helvetica, Arial-Unicode, Arial, Sans-serif">from the Noun Project</text></svg>