<svg id="Layer_1" data-name="Layer 1" xmlns="http://www.w3.org/2000/svg" viewBox="0 0 1000 1045"><title>lenzuola</title><path d="M895.77-1.33H104.23A104.35,104.35,0,0,0,0,102.91V940.77A104.35,104.35,0,0,0,104.23,1045H895.77A104.35,104.35,0,0,0,1000,940.77V102.91A104.35,104.35,0,0,0,895.77-1.33ZM946,102.91V268.12L730.55,52.69H895.77A50.28,50.28,0,0,1,946,102.91Zm-253.63-12L907.8,306.32H715.24a22.91,22.91,0,0,1-22.88-22.88ZM104.23,52.69H638.35v189.2H54v-139A50.28,50.28,0,0,1,104.23,52.69ZM895.77,991H104.23A50.28,50.28,0,0,1,54,940.77V295.9H639.45a77,77,0,0,0,75.79,64.43H946V940.77A50.28,50.28,0,0,1,895.77,991Z" fill="#abadae"/></svg>