<svg id="Layer_1" data-name="Layer 1" xmlns="http://www.w3.org/2000/svg" viewBox="0 0 1000 1000"><title>materiali-1</title><circle cx="636.06" cy="151.53" r="25.78" fill="#49c8f5"/><circle cx="902.11" cy="679.64" r="33.83" fill="#49c8f5"/><circle cx="266.73" cy="434.07" r="33.45" fill="#49c8f5"/><path d="M373.74,966.83H535.63a116.47,116.47,0,1,0-161.89,0Z" fill="#49c8f5"/><path d="M48.23,597.87a132.71,132.71,0,0,0-15.5,10.74L164.53,835.07A132.42,132.42,0,1,0,48.23,597.87Z" fill="#49c8f5"/><path d="M808.95,855.73c-.6-1.32-1.17-2.65-1.87-4A62.62,62.62,0,1,0,696.74,911c.7,1.3,1.49,2.51,2.26,3.74Z" fill="#49c8f5"/><circle cx="689.27" cy="492.58" r="139.38" fill="#49c8f5"/><circle cx="454.68" cy="359.06" r="62.62" fill="#49c8f5"/><path d="M331.44,88.37H237.92v32.74H197v54.71A82.8,82.8,0,0,0,331.44,88.37Z" fill="#49c8f5"/><circle cx="391.95" cy="650.36" r="29.04" fill="#49c8f5"/><path d="M500,1000C224.29,1000,0,775.7,0,500S224.29,0,500,0s500,224.3,500,500S775.7,1000,500,1000Zm0-934.52C260.4,65.48,65.48,260.4,65.48,500S260.4,934.52,500,934.52,934.52,739.6,934.52,500,739.59,65.48,500,65.48Z" fill="#49c8f5"/></svg>