<svg id="Layer_1" data-name="Layer 1" xmlns="http://www.w3.org/2000/svg" viewBox="0 0 1000 177"><title>onda</title><path d="M804.8,177c-58.12,0-87.55-35.31-109-61.08C676.63,93,669,85.54,652.3,85.54S628,93,608.91,115.9C587.42,141.69,558,177,499.9,177s-87.53-35.31-109-61.08c-19.13-23-26.72-30.38-43.43-30.38S323.17,93,304.05,115.9C282.56,141.69,253.14,177,195,177s-87.51-35.32-109-61.1C67,93,59.38,85.54,42.69,85.54a42.69,42.69,0,1,1,0-85.39c58.09,0,87.51,35.32,109,61.1C170.78,84.19,178.36,91.61,195,91.61s24.28-7.42,43.4-30.36c21.49-25.79,50.91-61.1,109-61.1s87.53,35.31,109,61.08c19.13,23,26.72,30.38,43.43,30.38s24.28-7.42,43.4-30.36C564.78,35.46,594.21.15,652.3.15s87.55,35.31,109,61.08c19.13,23,26.73,30.38,43.45,30.38s24.32-7.42,43.47-30.38C869.77,35.46,899.19.15,957.31.15a42.69,42.69,0,1,1,0,85.39c-16.72,0-24.32,7.42-43.45,30.38C892.35,141.69,862.92,177,804.8,177Z" fill="#49c8f5"/></svg>