<svg id="Layer_1" data-name="Layer 1" xmlns="http://www.w3.org/2000/svg" viewBox="0 0 1000 1141"><title>pacco</title><path d="M999.88,283.86c0-.39,0-.78-.08-1.17a27,27,0,0,0-.85-4.45c-.08-.27-.19-.54-.27-.81a26.84,26.84,0,0,0-1.45-3.63c-.16-.33-.31-.67-.48-1a27.32,27.32,0,0,0-2.45-3.8c-.2-.26-.43-.5-.64-.75a27,27,0,0,0-2.72-2.81c-.28-.25-.53-.5-.82-.74a27.19,27.19,0,0,0-3.38-2.42c-.18-.1-.37-.18-.54-.28s-.18-.14-.28-.19L513,3.37a27.11,27.11,0,0,0-26,0L14.11,261.83c-.1.06-.18.14-.28.19s-.37.17-.54.28a27.19,27.19,0,0,0-3.38,2.42c-.29.24-.55.49-.82.74a27,27,0,0,0-2.72,2.81c-.21.25-.44.49-.64.75a27.32,27.32,0,0,0-2.45,3.8c-.17.33-.32.66-.48,1a26.84,26.84,0,0,0-1.45,3.63c-.09.27-.19.53-.27.81a27,27,0,0,0-.85,4.45c0,.39-.05.78-.08,1.17,0,.59-.12,1.17-.12,1.76V855.43a27.11,27.11,0,0,0,14.11,23.79L487,1137.68c.45.25.93.43,1.39.65s.93.46,1.4.65c.65.26,1.3.47,2,.68.46.15.9.32,1.36.44.75.2,1.5.32,2.26.45.39.07.77.17,1.16.22a26.21,26.21,0,0,0,6.93,0c.39,0,.77-.15,1.16-.22.76-.13,1.51-.26,2.26-.45.46-.12.91-.29,1.36-.44.66-.21,1.32-.41,2-.68.48-.19.94-.43,1.4-.65s.94-.4,1.39-.65L985.89,879.22A27.11,27.11,0,0,0,1000,855.43V285.62C1000,285,999.92,284.45,999.88,283.86ZM500,58.06,916.35,285.62,748.59,377.31,332.24,149.75Zm0,455.12L83.65,285.62l168-91.82c.85.56,1.66,1.16,2.57,1.66l413.55,226ZM54.22,331.34,472.89,560.16v508L54.22,839.35Zm891.55,508L527.11,1068.17v-508l170.56-93.22v95.61a38.77,38.77,0,0,0,77.53,0v-138l170.56-93.22Z" fill="#49c8f5"/></svg>